<svg xmlns="http://www.w3.org/2000/svg" xmlns:xlink="http://www.w3.org/1999/xlink" width="500" zoomAndPan="magnify" viewBox="0 0 375 374.999991" height="500" preserveAspectRatio="xMidYMid meet" version="1.0"><defs><clipPath id="e7a2fb2d1c"><path d="M 81.410156 65.558594 L 295 65.558594 L 295 309.308594 L 81.410156 309.308594 Z M 81.410156 65.558594 " clip-rule="nonzero"/></clipPath><clipPath id="84bd51df7c"><path d="M 79.109375 150.988281 L 124 150.988281 L 124 201.238281 L 79.109375 201.238281 Z M 79.109375 150.988281 " clip-rule="nonzero"/></clipPath><clipPath id="3286f1e9ad"><path d="M 136.550781 150.988281 L 181.550781 150.988281 L 181.550781 201.238281 L 136.550781 201.238281 Z M 136.550781 150.988281 " clip-rule="nonzero"/></clipPath><clipPath id="cacba95adc"><path d="M 194.09375 151.226562 L 238.34375 151.226562 L 238.34375 200.726562 L 194.09375 200.726562 Z M 194.09375 151.226562 " clip-rule="nonzero"/></clipPath><clipPath id="ecccd2bfe4"><path d="M 194.09375 207.144531 L 238.660156 207.144531 L 238.660156 215.976562 L 194.09375 215.976562 Z M 194.09375 207.144531 " clip-rule="nonzero"/></clipPath><clipPath id="cde698c9d9"><path d="M 136.761719 207.144531 L 181.324219 207.144531 L 181.324219 215.976562 L 136.761719 215.976562 Z M 136.761719 207.144531 " clip-rule="nonzero"/></clipPath><clipPath id="c2b34ecfb6"><path d="M 79.320312 207.144531 L 123.886719 207.144531 L 123.886719 215.976562 L 79.320312 215.976562 Z M 79.320312 207.144531 " clip-rule="nonzero"/></clipPath><clipPath id="3ff44cf464"><path d="M 251.324219 207.144531 L 295.890625 207.144531 L 295.890625 215.976562 L 251.324219 215.976562 Z M 251.324219 207.144531 " clip-rule="nonzero"/></clipPath><clipPath id="c1c1fc96a2"><path d="M 260 150.988281 L 287 150.988281 L 287 172 L 260 172 Z M 260 150.988281 " clip-rule="nonzero"/></clipPath><clipPath id="1e2f8fe361"><path d="M 254.5 169.410156 L 292.710938 169.410156 L 292.710938 201.039062 L 254.5 201.039062 Z M 254.5 169.410156 " clip-rule="nonzero"/></clipPath></defs><g clip-path="url(#e7a2fb2d1c)"><path fill="#ffffff" d="M 241.449219 84.367188 C 215.367188 83.859375 195.042969 70.308594 188.101562 65.566406 C 181.15625 70.308594 160.832031 83.859375 134.753906 84.367188 C 106.132812 85.042969 88.179688 78.097656 81.40625 73.527344 L 81.40625 149.398438 L 92.921875 149.398438 L 92.921875 90.800781 C 105.285156 94.359375 118.15625 96.050781 131.027344 95.882812 L 135.089844 95.882812 C 152.875 95.375 170.996094 89.617188 188.101562 79.117188 C 205.207031 89.617188 223.328125 95.375 241.109375 95.710938 L 245.171875 95.710938 C 258.046875 95.882812 270.917969 94.1875 283.277344 90.632812 L 283.277344 149.230469 L 294.796875 149.230469 L 294.796875 73.527344 C 288.019531 78.097656 270.070312 85.042969 241.449219 84.367188 Z M 254.996094 246.949219 C 237.042969 271.675781 213.335938 289.457031 188.101562 297.585938 C 162.695312 289.625 139.15625 271.675781 121.203125 247.117188 C 116.292969 240.34375 111.890625 233.230469 108.164062 225.777344 L 95.292969 225.777344 C 113.246094 264.222656 147.285156 297.925781 188.101562 309.441406 C 218.585938 300.804688 245.171875 279.804688 264.3125 253.722656 C 270.746094 244.917969 276.335938 235.433594 280.90625 225.609375 L 268.207031 225.609375 C 264.3125 233.0625 259.90625 240.175781 254.996094 246.949219 Z M 254.996094 246.949219 " fill-opacity="1" fill-rule="nonzero"/></g><g clip-path="url(#84bd51df7c)"><path fill="#ffffff" d="M 101.492188 150.988281 C 103.675781 150.988281 105.445312 152.757812 105.445312 154.941406 L 105.445312 169.171875 L 117.769531 162.054688 C 119.660156 160.964844 122.074219 161.613281 123.167969 163.503906 C 124.257812 165.394531 123.609375 167.808594 121.71875 168.902344 L 109.398438 176.015625 L 121.71875 183.128906 C 123.609375 184.222656 124.257812 186.636719 123.167969 188.527344 C 122.074219 190.417969 119.660156 191.066406 117.769531 189.972656 L 105.445312 182.859375 L 105.445312 197.089844 C 105.445312 199.273438 103.675781 201.039062 101.492188 201.039062 C 99.3125 201.039062 97.542969 199.273438 97.542969 197.089844 L 97.542969 182.859375 L 85.21875 189.972656 C 83.328125 191.066406 80.914062 190.417969 79.820312 188.527344 C 78.730469 186.636719 79.378906 184.222656 81.265625 183.128906 L 93.589844 176.015625 L 81.265625 168.902344 C 79.378906 167.808594 78.730469 165.394531 79.820312 163.503906 C 80.914062 161.613281 83.328125 160.964844 85.21875 162.054688 L 97.542969 169.171875 L 97.542969 154.941406 C 97.542969 152.757812 99.3125 150.988281 101.492188 150.988281 Z M 101.492188 150.988281 " fill-opacity="1" fill-rule="nonzero"/></g><g clip-path="url(#3286f1e9ad)"><path fill="#ffffff" d="M 158.933594 150.988281 C 161.117188 150.988281 162.882812 152.757812 162.882812 154.941406 L 162.882812 169.171875 L 175.207031 162.054688 C 177.097656 160.964844 179.515625 161.613281 180.605469 163.503906 C 181.695312 165.394531 181.050781 167.808594 179.160156 168.902344 L 166.835938 176.015625 L 179.160156 183.128906 C 181.050781 184.222656 181.695312 186.636719 180.605469 188.527344 C 179.515625 190.417969 177.097656 191.066406 175.207031 189.972656 L 162.882812 182.859375 L 162.882812 197.089844 C 162.882812 199.273438 161.117188 201.039062 158.933594 201.039062 C 156.75 201.039062 154.980469 199.273438 154.980469 197.089844 L 154.980469 182.859375 L 142.660156 189.972656 C 140.769531 191.066406 138.351562 190.417969 137.261719 188.527344 C 136.167969 186.636719 136.816406 184.222656 138.707031 183.128906 L 151.03125 176.015625 L 138.707031 168.902344 C 136.816406 167.808594 136.167969 165.394531 137.261719 163.503906 C 138.351562 161.613281 140.769531 160.964844 142.65625 162.054688 L 154.980469 169.171875 L 154.980469 154.941406 C 154.980469 152.757812 156.75 150.988281 158.933594 150.988281 Z M 158.933594 150.988281 " fill-opacity="1" fill-rule="nonzero"/></g><g clip-path="url(#cacba95adc)"><path fill="#ffffff" d="M 216.371094 151.226562 C 218.542969 151.226562 220.304688 152.984375 220.304688 155.15625 L 220.304688 169.320312 L 232.570312 162.238281 C 234.453125 161.152344 236.859375 161.796875 237.945312 163.679688 C 239.03125 165.558594 238.386719 167.964844 236.503906 169.050781 L 224.238281 176.132812 L 236.503906 183.214844 C 238.382812 184.300781 239.027344 186.707031 237.941406 188.585938 C 236.855469 190.46875 234.453125 191.113281 232.570312 190.027344 L 220.304688 182.945312 L 220.304688 197.109375 C 220.304688 199.28125 218.542969 201.042969 216.371094 201.042969 C 214.199219 201.042969 212.4375 199.28125 212.4375 197.109375 L 212.4375 182.945312 L 200.171875 190.027344 C 198.292969 191.113281 195.886719 190.46875 194.800781 188.585938 C 193.714844 186.707031 194.359375 184.300781 196.242188 183.214844 L 208.507812 176.132812 L 196.242188 169.050781 C 194.359375 167.964844 193.714844 165.558594 194.800781 163.679688 C 195.886719 161.796875 198.292969 161.152344 200.171875 162.238281 L 212.4375 169.320312 L 212.4375 155.15625 C 212.4375 152.984375 214.199219 151.226562 216.371094 151.226562 Z M 216.371094 151.226562 " fill-opacity="1" fill-rule="nonzero"/></g><g clip-path="url(#ecccd2bfe4)"><path fill="#ffffff" d="M 194.09375 207.144531 L 238.675781 207.144531 L 238.675781 215.976562 L 194.09375 215.976562 Z M 194.09375 207.144531 " fill-opacity="1" fill-rule="nonzero"/></g><g clip-path="url(#cde698c9d9)"><path fill="#ffffff" d="M 136.761719 207.144531 L 181.34375 207.144531 L 181.34375 215.976562 L 136.761719 215.976562 Z M 136.761719 207.144531 " fill-opacity="1" fill-rule="nonzero"/></g><g clip-path="url(#c2b34ecfb6)"><path fill="#ffffff" d="M 79.320312 207.144531 L 123.902344 207.144531 L 123.902344 215.976562 L 79.320312 215.976562 Z M 79.320312 207.144531 " fill-opacity="1" fill-rule="nonzero"/></g><g clip-path="url(#3ff44cf464)"><path fill="#ffffff" d="M 251.324219 207.144531 L 295.90625 207.144531 L 295.90625 215.976562 L 251.324219 215.976562 Z M 251.324219 207.144531 " fill-opacity="1" fill-rule="nonzero"/></g><g clip-path="url(#c1c1fc96a2)"><path fill="#ffffff" d="M 273.605469 150.988281 C 266.601562 150.988281 260.90625 156.6875 260.90625 163.691406 L 260.90625 171.390625 C 261.007812 171.382812 261.113281 171.375 261.21875 171.375 L 265.539062 171.375 L 265.539062 163.691406 C 265.539062 159.242188 269.160156 155.625 273.605469 155.625 C 278.050781 155.625 281.671875 159.242188 281.671875 163.691406 L 281.671875 171.375 L 285.992188 171.375 C 286.097656 171.375 286.203125 171.382812 286.304688 171.390625 L 286.304688 163.691406 C 286.304688 156.6875 280.609375 150.988281 273.605469 150.988281 " fill-opacity="1" fill-rule="nonzero"/></g><g clip-path="url(#1e2f8fe361)"><path fill="#ffffff" d="M 260.898438 173.167969 C 260.835938 173.167969 260.765625 173.167969 260.675781 173.175781 C 259.214844 173.253906 258.160156 174.570312 258.160156 175.417969 L 258.160156 195.128906 C 258.160156 196.015625 259.335938 197.382812 260.898438 197.382812 L 286.3125 197.382812 C 287.875 197.382812 289.050781 196.015625 289.050781 195.128906 L 289.050781 175.417969 C 289.050781 174.570312 287.996094 173.253906 286.535156 173.175781 C 286.445312 173.167969 286.375 173.167969 286.3125 173.167969 Z M 286.3125 201.039062 L 260.898438 201.039062 C 259.246094 201.039062 257.65625 200.402344 256.417969 199.238281 C 255.199219 198.097656 254.5 196.597656 254.5 195.128906 L 254.5 175.417969 C 254.5 174.015625 255.144531 172.566406 256.269531 171.4375 C 257.414062 170.285156 258.910156 169.605469 260.476562 169.519531 C 260.632812 169.511719 260.765625 169.507812 260.898438 169.507812 L 286.3125 169.507812 C 286.445312 169.507812 286.578125 169.511719 286.734375 169.519531 C 288.300781 169.605469 289.796875 170.285156 290.941406 171.4375 C 292.066406 172.566406 292.710938 174.015625 292.710938 175.417969 L 292.710938 195.128906 C 292.710938 196.597656 292.011719 198.097656 290.792969 199.238281 C 289.554688 200.402344 287.964844 201.039062 286.3125 201.039062 " fill-opacity="1" fill-rule="nonzero"/></g><path fill="#ffffff" d="M 276.886719 182.398438 C 276.886719 183.703125 276.125 184.832031 275.023438 185.359375 L 275.023438 189.667969 C 275.023438 190.0625 274.867188 190.417969 274.609375 190.671875 C 274.351562 190.929688 273.996094 191.089844 273.605469 191.089844 C 273.578125 191.089844 273.550781 191.085938 273.523438 191.085938 C 273.125 191.0625 272.773438 190.878906 272.527344 190.59375 C 272.316406 190.347656 272.1875 190.023438 272.1875 189.667969 L 272.1875 185.359375 C 271.085938 184.832031 270.324219 183.703125 270.324219 182.398438 C 270.324219 180.585938 271.792969 179.117188 273.605469 179.117188 C 274.234375 179.117188 274.824219 179.296875 275.324219 179.601562 C 276.261719 180.179688 276.886719 181.21875 276.886719 182.398438 " fill-opacity="1" fill-rule="nonzero"/></svg>